<svg version="1.2" xmlns="http://www.w3.org/2000/svg" viewBox="0 0 526 139" width="526" height="139">
	<title>aestudio-logo-light-svg</title>
	<defs>
		<clipPath clipPathUnits="userSpaceOnUse" id="cp1">
			<path d="m0 0h139v139h-139z"/>
		</clipPath>
	</defs>
	<style>
		.s0 { fill: #000000 }
		.s1 { fill: #f99556 }
		.s2 { fill: #fa6e62 }
	</style>
	<path id="Layer" fill-rule="evenodd" class="s0" d="m197.4 92l19.4-45.5h0.4l19.3 45.5h-8l-4.1-10.3h2.5l-2.4-5.9h-2.4l-5.5-13.8-5.6 13.8h-1.4l-2.1 5.9h1l-4.2 10.3zm19.2-30l3.3-7.9-5.1 3.4zm-8 19.7l2.4-5.9h11.1l2.3 5.9zm36.6-33.4h29v6.7h-21.9v11.7h19.5v6.7h-19.5v11.9h22.8v6.7h-29.9zm36.3 40q0-1.6 1.1-2.6 1.2-1.1 2.5-1.1 1.3 0 2.4 1.1 1.2 1 1.2 2.6 0 1.7-1.2 2.7-1.1 1-2.4 1-1.3 0-2.5-1-1.1-1-1.1-2.7zm38.7-31.1q-2.3-1.2-4.9-2.1-2.7-0.9-5.1-0.9-3.2 0-5.1 1.5-1.9 1.4-1.9 3.9 0 1.8 1.3 3.2 1.3 1.3 3.4 2.3 2 1 4.3 1.9 2 0.7 3.9 1.7 2 1 3.5 2.4 1.6 1.5 2.5 3.6 1 2.1 1 5.3 0 3.4-1.8 6.3-1.7 2.8-5 4.5-3.2 1.6-7.9 1.6-2.7 0-5.3-0.6-2.6-0.6-4.9-1.6-2.4-1.1-4.4-2.4l3.2-5.4q1.4 1 3.3 1.9 1.8 0.9 3.8 1.5 2 0.5 3.7 0.5 1.9 0 3.7-0.6 1.8-0.6 3-2 1.3-1.4 1.3-3.7 0-1.8-1.1-3.2-1.1-1.3-2.8-2.2-1.7-1.1-3.7-1.8-2.1-0.8-4.2-1.8-2.1-0.9-3.9-2.3-1.8-1.5-3-3.5-1.1-2-1.1-5 0-3.6 1.7-6.3 1.7-2.6 4.6-4.2 3-1.5 6.9-1.7 4.6 0 7.9 1.2 3.3 1.1 5.8 2.6zm9.9-8.9h29.2v6.8h-11.3v36.9h-6.9v-36.9h-11zm45.6 27.9q0 2.6 1.3 4.8 1.4 2.1 3.6 3.4 2.2 1.2 5 1.2 2.9 0 5.1-1.2 2.3-1.3 3.6-3.4 1.4-2.2 1.4-4.8v-27.9h6.9v28.1q0 4.7-2.3 8.4-2.3 3.6-6.1 5.6-3.9 2-8.6 2-4.7 0-8.5-2-3.9-2-6.2-5.6-2.2-3.7-2.2-8.4v-28.1h7zm39.4 15.7v-43.7h12.4q6.5 0 11.1 2 4.5 1.9 7.4 5.2 2.8 3.2 4 7.3 1.4 3.9 1.4 7.9 0 5-1.8 8.9-1.7 3.9-4.7 6.7-3 2.7-7 4.2-3.9 1.5-8.3 1.5zm7-6.7h6.2q3.5 0 6.4-1 2.9-1 5-2.9 2.1-1.9 3.3-4.7 1.2-2.8 1.2-6.4 0-4.1-1.4-7-1.3-2.9-3.5-4.7-2.2-1.9-4.8-2.7-2.6-0.9-5.1-0.9h-7.3zm39.8-36.9h7v43.6h-7zm17.6 21.9q0-4.5 1.7-8.5 1.7-4.1 4.8-7.2 3.1-3.1 7.1-4.8 4.1-1.8 8.7-1.8 4.5 0 8.6 1.8 4 1.7 7.1 4.8 3.1 3.1 4.9 7.2 1.8 4 1.8 8.5 0 4.7-1.8 8.7-1.8 4-4.9 7.1-3.1 3.1-7.1 4.8-4.1 1.7-8.6 1.7-4.7 0-8.7-1.7-4-1.7-7.1-4.7-3.1-3.1-4.8-7.1-1.7-4.1-1.7-8.8zm7.2 0q0 3.3 1.1 6.1 1.2 2.8 3.3 5 2.1 2.1 4.9 3.3 2.7 1.2 6 1.2 3.1 0 5.8-1.2 2.7-1.2 4.8-3.3 2-2.2 3.2-5 1.2-2.8 1.2-6.1 0-3.3-1.2-6.1-1.2-2.8-3.3-5-2-2.1-4.8-3.3-2.7-1.2-5.9-1.2-3.2 0-6 1.2-2.7 1.2-4.8 3.3-2.1 2.2-3.2 5.1-1.1 2.8-1.1 6z"/>
	<g id="Clip-Path" clip-path="url(#cp1)">
		<g id="Layer">
			<path id="Layer" class="s1" d="m0 8v128c0 1.7 1.3 3 3 3h44c1.7 0 3-1.3 3-3v-26.3c0-2.8 3.4-4.1 5.3-2l26.3 30.3c0.6 0.6 1.4 1 2.3 1h30.5c2.6 0 4-3 2.3-5l-111.4-128c-1.9-2-5.3-0.8-5.3 2z"/>
			<path id="Layer" class="s2" d="m22.3 5l111.4 128c1.9 2 5.3 0.8 5.3-2v-32-26c0-1.7-1.3-3-3-3h-24.1c-0.9 0-1.7-0.4-2.3-1l-6.2-7c-1.7-1.9-0.3-5 2.3-5h30.3c1.7 0 3-1.3 3-3v-17.5c0-1.7-1.3-3-3-3h-56.1c-0.9 0-1.7-0.4-2.3-1l-6.9-8c-1.6-2-0.2-5 2.3-5h63c1.7 0 3-1.3 3-3v-13.5c0-1.7-1.3-3-3-3h-111.4c-2.6 0-4 3-2.3 5z"/>
		</g>
	</g>
</svg>