<?xml version="1.0" standalone="no"?>
<!DOCTYPE svg PUBLIC "-//W3C//DTD SVG 20010904//EN"
 "http://www.w3.org/TR/2001/REC-SVG-20010904/DTD/svg10.dtd">
<svg version="1.0" xmlns="http://www.w3.org/2000/svg"
 width="687.000000pt" height="300.000000pt" viewBox="0 0 687.000000 300.000000"
 preserveAspectRatio="xMidYMid meet">

<g transform="translate(0.000000,300.000000) scale(0.100000,-0.100000)"
fill="#000000" stroke="none">
<path d="M2993 2989 c-20 -20 -19 -982 1 -998 9 -7 42 -11 88 -9 l73 3 3 423
2 422 295 0 c161 0 296 4 299 9 13 21 -111 103 -204 133 -57 19 -95 22 -305
25 -187 4 -243 2 -252 -8z"/>
<path d="M3227 2754 c-4 -4 -7 -216 -7 -471 l0 -465 -29 -28 c-16 -16 -41 -32
-57 -36 -43 -10 -55 -23 -48 -53 12 -49 18 -51 159 -51 100 0 135 3 144 14 8
9 10 162 9 552 l-3 539 -80 3 c-45 1 -84 0 -88 -4z"/>
<path d="M3476 2744 c-3 -9 -6 -128 -6 -265 0 -209 2 -249 14 -249 23 0 98 62
131 109 28 40 30 49 33 153 l4 110 82 -4 c109 -6 172 -39 234 -123 24 -33 45
-61 47 -63 5 -5 85 47 85 55 0 12 -132 258 -148 276 -13 15 -39 17 -242 17
-199 0 -229 -2 -234 -16z"/>
<path d="M2838 2599 c-38 -69 -68 -129 -68 -132 0 -7 75 -57 85 -57 2 0 16 17
30 38 24 37 26 45 23 158 l-3 119 -67 -126z"/>
<path d="M3728 2466 c-11 -129 -88 -240 -204 -293 l-54 -24 0 -81 0 -80 38 6
c63 12 179 72 233 123 96 88 167 233 157 318 -4 37 -68 84 -125 92 l-40 5 -5
-66z"/>
<path d="M3565 1937 c-38 -11 -76 -21 -82 -23 -18 -5 -18 -235 -1 -252 8 -8
56 -12 149 -12 l137 0 11 31 c17 50 14 57 -31 69 -22 7 -54 24 -70 40 -25 25
-28 35 -28 94 0 35 -3 67 -7 69 -5 2 -39 -5 -78 -16z"/>
<path d="M1235 1211 c-96 -23 -176 -93 -200 -174 -41 -139 14 -285 130 -346
45 -24 60 -26 155 -25 58 1 140 2 183 2 l77 1 0 126 0 125 -96 0 -95 0 3 -27
c3 -24 8 -28 41 -31 l38 -3 -3 -52 c-3 -46 -6 -53 -33 -67 -39 -20 -141 -18
-181 3 -138 72 -140 322 -3 392 35 19 120 19 162 1 18 -7 43 -25 56 -40 20
-21 33 -26 73 -26 26 0 48 2 48 5 0 4 -7 19 -15 35 -20 39 -74 79 -131 96 -49
15 -158 17 -209 5z"/>
<path d="M6360 945 l0 -275 45 0 45 0 0 165 c0 91 3 165 8 165 4 0 84 -76 177
-170 138 -138 175 -170 197 -170 l28 0 0 275 0 275 -45 0 -45 0 -2 -172 -3
-173 -181 178 c-123 121 -187 177 -202 177 l-22 0 0 -275z"/>
<path d="M10 940 l0 -272 158 4 c151 3 159 4 205 31 189 111 176 390 -23 481
-37 17 -70 21 -192 24 l-148 4 0 -272z m260 185 c40 -21 87 -79 99 -122 41
-145 -49 -272 -191 -273 l-48 0 0 203 c0 112 3 207 8 211 10 11 100 -2 132
-19z"/>
<path d="M700 940 l0 -270 60 0 60 0 0 270 0 270 -60 0 -60 0 0 -270z"/>
<path d="M1800 940 l0 -270 60 0 60 0 0 270 0 270 -60 0 -60 0 0 -270z"/>
<path d="M2110 1175 l0 -35 95 0 95 0 0 -235 0 -235 65 0 65 0 0 235 0 235 95
0 95 0 0 35 0 35 -255 0 -255 0 0 -35z"/>
<path d="M2735 949 c-61 -143 -112 -265 -114 -270 -2 -6 16 -9 44 -7 l46 3 28
63 c15 35 32 67 38 73 5 5 51 9 104 7 l94 -3 35 -72 35 -73 62 0 c35 0 63 3
63 8 0 4 -55 125 -121 270 l-122 262 -41 0 -41 0 -110 -261z m175 15 c16 -37
30 -71 30 -75 0 -5 -29 -9 -65 -9 -45 0 -65 4 -65 13 0 20 52 137 61 137 5 0
22 -30 39 -66z"/>
<path d="M3337 1204 c-4 -4 -7 -126 -7 -271 l0 -263 196 0 195 0 -3 33 -3 32
-127 3 -128 3 -2 232 -3 232 -55 3 c-31 2 -59 0 -63 -4z"/>
<path d="M4320 1175 l0 -34 98 -3 97 -3 3 -232 2 -233 60 0 60 0 0 235 0 235
95 0 95 0 0 35 0 35 -255 0 -255 0 0 -35z"/>
<path d="M5000 1204 c0 -4 42 -126 93 -271 l92 -264 49 3 48 3 53 154 c30 84
56 156 60 159 3 3 8 -3 11 -13 3 -11 27 -83 53 -160 l47 -140 49 0 49 0 93
260 c50 143 92 264 93 268 0 4 -21 7 -46 5 l-47 -3 -60 -173 c-33 -95 -63
-170 -66 -167 -3 4 -31 81 -62 173 l-56 167 -40 3 -41 3 -57 -170 c-31 -94
-60 -171 -65 -171 -4 0 -20 33 -34 73 -14 39 -41 115 -60 167 l-34 95 -61 3
c-33 2 -61 0 -61 -4z"/>
<path d="M5980 940 l0 -270 60 0 60 0 0 270 0 270 -60 0 -60 0 0 -270z"/>
<path d="M1984 391 c-39 -24 -57 -70 -43 -110 12 -35 38 -54 116 -82 31 -12
67 -32 80 -45 51 -51 10 -114 -74 -114 -55 0 -78 12 -98 50 -16 31 -45 41 -45
16 0 -8 12 -28 26 -45 50 -60 171 -66 226 -11 22 23 28 37 28 73 0 55 -26 81
-116 117 -86 34 -104 48 -104 79 0 35 10 48 44 61 43 16 93 2 120 -32 26 -34
54 -31 35 3 -29 56 -135 77 -195 40z"/>
<path d="M4235 391 c-147 -66 -152 -281 -10 -355 58 -30 146 -28 205 4 83 47
122 135 96 223 -35 120 -175 181 -291 128z m151 -20 c61 -28 88 -72 92 -151 3
-55 0 -70 -20 -100 -40 -59 -84 -82 -146 -78 -43 4 -59 11 -86 37 -86 84 -69
237 34 289 53 27 73 27 126 3z"/>
<path d="M4732 390 c-37 -23 -55 -62 -47 -101 8 -37 30 -54 106 -85 82 -33
109 -58 109 -100 0 -43 -30 -64 -91 -64 -50 0 -93 25 -104 60 -8 25 -35 26
-35 1 0 -42 78 -91 147 -91 37 0 101 30 117 55 22 33 20 87 -4 117 -11 15 -54
39 -99 58 -44 17 -87 40 -96 50 -26 29 -12 68 31 86 47 20 90 10 125 -29 24
-26 29 -28 35 -14 8 22 -12 46 -53 64 -46 19 -103 16 -141 -7z"/>
<path d="M2337 394 c-16 -16 9 -24 74 -24 l69 0 0 -175 0 -175 25 0 25 0 0
175 0 174 72 3 c46 2 73 7 76 16 3 9 -35 12 -165 12 -94 0 -173 -3 -176 -6z"/>
<path d="M2831 252 c4 -160 11 -183 66 -219 40 -26 143 -24 180 3 53 39 63 75
63 227 0 115 -2 137 -15 137 -13 0 -15 -22 -15 -140 0 -155 -9 -187 -55 -208
-14 -7 -44 -12 -66 -12 -33 0 -48 7 -75 34 l-34 34 0 146 0 146 -26 0 -26 0 3
-148z"/>
<path d="M3340 210 l0 -190 88 0 c107 0 158 21 200 79 71 98 39 226 -69 281
-30 16 -59 20 -129 20 l-90 0 0 -190z m197 144 c54 -41 68 -70 68 -144 0 -54
-4 -74 -21 -97 -31 -41 -76 -64 -139 -70 l-55 -6 0 173 0 172 60 -4 c39 -3 70
-11 87 -24z"/>
<path d="M3870 210 l0 -190 25 0 25 0 0 190 0 190 -25 0 -25 0 0 -190z"/>
</g>
</svg>
