<?xml version="1.0" standalone="no"?>
<!DOCTYPE svg PUBLIC "-//W3C//DTD SVG 20010904//EN"
 "http://www.w3.org/TR/2001/REC-SVG-20010904/DTD/svg10.dtd">
<svg version="1.0" xmlns="http://www.w3.org/2000/svg"
 width="982.000000pt" height="340.000000pt" viewBox="0 0 982.000000 340.000000"
 preserveAspectRatio="xMidYMid meet">

<g transform="translate(0.000000,340.000000) scale(0.100000,-0.100000)"
fill="#000000" stroke="none">
<path d="M3915 3390 c-76 -14 -163 -47 -217 -81 -116 -75 -175 -215 -148 -351
34 -173 155 -274 390 -327 332 -75 359 -85 398 -141 16 -24 22 -47 22 -87 0
-80 -30 -127 -110 -169 -29 -16 -57 -19 -165 -19 -115 0 -136 3 -183 24 -87
39 -142 123 -142 216 l0 26 -122 -3 -123 -3 2 -53 c8 -187 133 -330 339 -387
95 -26 292 -31 399 -10 163 31 266 97 326 207 33 62 34 65 34 183 0 113 -2
123 -28 171 -67 120 -188 181 -477 238 -158 31 -232 59 -270 102 -77 89 -35
221 81 255 63 19 213 16 275 -5 78 -26 144 -108 144 -181 l0 -25 123 0 124 0
-9 63 c-10 78 -56 173 -109 226 -47 47 -137 93 -224 116 -72 19 -261 28 -330
15z"/>
<path d="M5741 3389 c-144 -24 -271 -90 -364 -189 -75 -80 -118 -157 -153
-279 -24 -85 -26 -102 -22 -244 4 -135 7 -161 32 -232 49 -138 109 -225 208
-302 203 -156 518 -177 759 -52 157 82 270 241 311 438 23 111 20 284 -7 386
-55 214 -202 376 -401 443 -117 40 -244 51 -363 31z m285 -243 c154 -71 230
-197 241 -403 13 -228 -67 -398 -224 -475 -55 -27 -79 -33 -154 -36 -126 -6
-210 21 -288 94 -97 90 -140 205 -141 379 0 205 71 350 208 423 81 43 123 52
220 47 61 -3 98 -11 138 -29z"/>
<path d="M0 2705 l0 -666 343 3 c340 4 342 4 422 31 248 83 381 252 416 529
38 293 -83 568 -300 682 -136 71 -184 78 -553 84 l-328 4 0 -667z m701 414
c96 -45 162 -119 198 -220 21 -60 31 -187 21 -282 -16 -152 -78 -256 -188
-315 -76 -41 -162 -53 -337 -50 l-140 3 -3 448 -2 449 197 -4 c190 -3 200 -4
254 -29z"/>
<path d="M1360 2705 l0 -665 120 0 120 0 0 665 0 665 -120 0 -120 0 0 -665z"/>
<path d="M1725 3353 c15 -38 180 -481 220 -593 13 -36 37 -103 55 -150 17 -47
45 -121 61 -165 16 -44 55 -152 88 -240 l58 -160 150 -3 150 -3 87 243 c48
134 98 272 111 308 14 36 41 110 60 165 20 55 47 129 60 165 86 234 155 432
155 441 0 6 -47 9 -127 7 l-128 -3 -22 -65 c-12 -36 -56 -164 -99 -285 -99
-287 -196 -582 -219 -672 -10 -40 -21 -73 -25 -73 -3 0 -14 33 -24 73 -21 82
-102 329 -171 522 -48 133 -108 304 -152 433 l-25 72 -135 0 c-125 0 -135 -1
-128 -17z"/>
<path d="M3100 2705 l0 -665 125 0 125 0 0 665 0 665 -125 0 -125 0 0 -665z"/>
<path d="M4780 2705 l0 -665 125 0 125 0 -2 663 -3 662 -122 3 -123 3 0 -666z"/>
<path d="M6700 2705 l0 -665 121 0 120 0 -3 490 c-2 270 -1 490 2 490 3 0 30
-45 60 -100 30 -54 165 -274 300 -489 l245 -390 143 -1 142 0 0 665 0 665
-120 0 -120 0 2 -490 c2 -270 0 -490 -4 -490 -4 0 -24 30 -44 68 -48 86 -67
117 -339 550 l-227 362 -139 0 -139 0 0 -665z"/>
<path d="M0 1700 l0 -110 4910 0 4910 0 0 110 0 110 -4910 0 -4910 0 0 -110z"/>
<path d="M3266 1375 c-149 -29 -251 -94 -307 -198 -32 -59 -34 -67 -34 -167 0
-98 2 -109 32 -165 68 -131 163 -182 453 -245 186 -41 228 -55 274 -91 69 -54
73 -175 8 -237 -68 -63 -213 -88 -350 -58 -121 25 -184 86 -204 197 l-10 60
-122 -3 -121 -3 3 -45 c9 -164 120 -314 271 -369 102 -36 135 -42 256 -48 293
-14 496 84 562 272 25 72 24 215 -4 276 -58 130 -180 201 -438 254 -225 46
-310 78 -336 128 -37 69 -27 160 23 202 92 77 338 70 432 -13 25 -23 56 -90
56 -124 l0 -28 125 0 c93 0 125 3 125 13 0 6 -7 41 -15 76 -38 161 -137 257
-311 301 -106 28 -267 34 -368 15z"/>
<path d="M4000 1250 l0 -110 215 0 215 0 0 -555 0 -555 125 0 125 0 0 555 0
555 215 0 215 0 0 110 0 110 -555 0 -555 0 0 -110z"/>
<path d="M5250 1358 c0 -2 -1 -301 -3 -666 l-2 -662 123 0 122 0 0 260 0 260
208 0 c196 0 210 -1 252 -23 73 -36 90 -83 99 -269 5 -106 12 -165 24 -190
l16 -38 125 0 c70 0 126 2 126 4 0 2 -6 21 -14 43 -8 22 -19 110 -26 194 -6
85 -16 177 -21 206 -13 67 -57 126 -119 161 -27 15 -50 29 -50 32 0 4 16 12
35 19 54 19 130 101 154 166 28 75 28 185 1 259 -40 106 -109 168 -236 213
l-79 28 -367 3 c-203 2 -368 2 -368 0z m695 -222 c81 -34 115 -88 115 -180 0
-66 -12 -101 -48 -140 -56 -59 -86 -66 -314 -66 l-208 0 0 198 c0 109 3 202 8
206 4 5 97 6 207 4 158 -4 208 -9 240 -22z"/>
<path d="M6500 695 l0 -665 490 0 490 0 0 110 0 110 -365 0 -365 0 0 180 0
180 333 0 332 0 -2 102 -1 103 -331 3 -331 2 0 160 0 160 365 0 365 0 0 110 0
110 -490 0 -490 0 0 -665z"/>
<path d="M7650 695 l0 -665 488 0 487 0 -2 107 -2 108 -360 3 -360 2 -3 176
c-2 97 -1 178 1 180 2 2 152 4 333 4 l328 0 0 105 0 105 -332 0 -333 0 3 160
3 160 364 0 365 0 0 110 0 110 -490 0 -490 0 0 -665z"/>
<path d="M8710 1250 l0 -110 210 0 210 0 0 -555 0 -555 130 0 130 0 0 555 0
555 215 0 215 0 0 110 0 110 -555 0 -555 0 0 -110z"/>
</g>
</svg>
