<?xml version="1.0" standalone="no"?>
<!DOCTYPE svg PUBLIC "-//W3C//DTD SVG 20010904//EN"
 "http://www.w3.org/TR/2001/REC-SVG-20010904/DTD/svg10.dtd">
<svg version="1.0" xmlns="http://www.w3.org/2000/svg"
 width="565.000000pt" height="195.000000pt" viewBox="0 0 565.000000 195.000000"
 preserveAspectRatio="xMidYMid meet">

<g transform="translate(0.000000,195.000000) scale(0.100000,-0.100000)"
fill="#000000" stroke="none">
<path d="M565 1940 c-32 -12 -47 -36 -47 -75 0 -65 62 -101 120 -71 32 16 42
34 42 71 0 37 -10 55 -41 70 -31 17 -45 18 -74 5z"/>
<path d="M3955 1938 c-31 -18 -44 -40 -44 -73 0 -74 95 -109 145 -54 24 27 23
84 -2 109 -24 25 -73 34 -99 18z"/>
<path d="M10 1570 l0 -361 58 3 57 3 3 153 3 152 154 0 155 0 0 50 0 50 -155
0 -155 0 0 100 0 100 166 0 165 0 -3 53 -3 52 -222 3 -223 2 0 -360z"/>
<path d="M2960 1570 l0 -360 60 0 60 0 0 134 0 133 113 5 c119 6 163 18 209
61 46 43 62 86 63 162 0 86 -22 136 -77 175 -54 39 -115 50 -283 50 l-145 0 0
-360z m330 235 c41 -21 60 -53 60 -100 0 -83 -52 -115 -185 -115 l-85 0 0 115
0 115 90 0 c61 0 100 -5 120 -15z"/>
<path d="M4858 1798 l-3 -83 -67 -3 -68 -3 0 -44 0 -44 68 -3 67 -3 5 -183 c5
-181 5 -183 30 -202 20 -16 42 -20 108 -20 l82 0 0 49 0 50 -52 3 -53 3 -3
153 -3 152 71 0 70 0 0 45 0 45 -70 0 -70 0 0 85 0 85 -55 0 -54 0 -3 -82z"/>
<path d="M1520 1717 c-19 -6 -55 -32 -81 -57 -101 -97 -105 -270 -8 -375 85
-92 223 -100 303 -17 l37 37 -3 -100 -3 -100 -177 -3 -178 -2 0 -45 0 -45 213
0 214 0 24 26 24 26 3 324 3 324 -61 0 -60 0 0 -37 0 -37 -38 37 c-56 55 -130
70 -212 44z m170 -105 c53 -26 80 -74 80 -142 0 -101 -67 -166 -162 -156 -89
9 -132 61 -132 156 0 69 23 114 72 139 46 25 97 26 142 3z"/>
<path d="M2144 1714 c-54 -19 -111 -75 -137 -133 -24 -55 -28 -157 -8 -215 18
-51 85 -124 136 -147 51 -23 161 -25 213 -4 33 14 122 90 122 105 0 3 -20 17
-45 30 l-45 25 -23 -27 c-65 -81 -195 -68 -242 22 -31 61 -34 60 175 60 l190
0 0 49 c0 142 -90 240 -228 247 -43 2 -82 -2 -108 -12z m182 -118 c21 -21 34
-44 34 -60 l0 -26 -130 0 c-84 0 -130 4 -130 10 0 21 30 69 56 89 20 16 41 21
81 21 49 0 59 -4 89 -34z"/>
<path d="M5310 1719 c-99 -30 -145 -119 -105 -203 22 -46 75 -72 185 -91 52
-9 105 -23 118 -31 56 -37 -3 -104 -92 -104 -50 0 -98 24 -139 69 l-37 41 -45
-28 -45 -28 36 -42 c19 -23 57 -54 82 -70 43 -25 56 -27 148 -27 93 0 104 2
142 27 52 35 72 65 79 119 13 91 -50 141 -205 164 -48 8 -95 17 -105 20 -26
11 -33 52 -12 75 40 44 131 32 194 -26 21 -18 42 -34 47 -34 5 0 25 14 44 30
l35 30 -40 35 c-22 19 -59 45 -83 56 -50 25 -150 34 -202 18z"/>
<path d="M984 1706 c-17 -8 -43 -29 -57 -47 l-27 -34 0 43 0 42 -60 0 -60 0 2
-247 3 -248 58 -3 57 -3 0 156 c0 173 10 214 59 239 55 29 122 23 163 -13 l33
-29 3 -176 4 -176 55 0 55 0 -4 188 c-3 183 -4 188 -30 234 -35 59 -92 88
-169 88 -30 -1 -68 -7 -85 -14z"/>
<path d="M2773 1709 c-17 -5 -43 -23 -57 -39 -13 -17 -27 -30 -30 -30 -3 0 -6
16 -6 35 l0 35 -55 0 -55 0 0 -250 0 -250 60 0 60 0 0 171 0 171 29 29 c27 26
36 29 96 29 l66 0 -3 53 c-3 52 -3 52 -38 54 -19 1 -49 -3 -67 -8z"/>
<path d="M3753 1709 c-17 -5 -43 -23 -57 -39 -13 -17 -27 -30 -30 -30 -3 0 -6
16 -6 35 l0 35 -55 0 -55 0 0 -250 0 -250 60 0 60 0 0 169 c0 164 1 171 24
198 21 24 32 28 95 31 l71 4 0 54 0 54 -37 -1 c-21 0 -52 -5 -70 -10z"/>
<path d="M4375 1704 c-16 -9 -42 -30 -57 -47 l-27 -32 -1 43 0 42 -55 0 -55 0
0 -250 0 -250 55 0 55 0 0 153 c0 167 9 201 61 240 34 24 116 26 151 3 42 -28
48 -56 48 -231 l0 -165 55 0 55 0 0 183 c0 208 -9 243 -75 293 -33 24 -49 29
-109 32 -51 1 -80 -2 -101 -14z"/>
<path d="M540 1460 l0 -250 54 0 c40 0 55 4 60 16 8 20 8 448 0 468 -5 12 -20
16 -60 16 l-54 0 0 -250z"/>
<path d="M3940 1460 l0 -250 55 0 55 0 0 250 0 250 -55 0 -55 0 0 -250z"/>
<path d="M3377 740 c-92 -23 -154 -77 -183 -157 -16 -46 -19 -340 -4 -394 35
-126 171 -199 320 -171 81 15 138 54 175 122 l30 55 0 185 c0 171 -2 188 -22
225 -27 51 -78 100 -123 119 -47 19 -146 27 -193 16z m176 -105 c15 -9 37 -33
49 -54 22 -34 23 -47 23 -201 0 -181 -7 -209 -68 -254 -37 -27 -151 -35 -193
-13 -78 40 -94 88 -94 271 0 115 4 148 19 181 21 47 48 73 87 85 43 14 147 5
177 -15z"/>
<path d="M2617 733 c-4 -3 -7 -51 -7 -105 l0 -98 -66 0 -65 0 3 -42 3 -43 63
-3 62 -3 0 -64 0 -65 -66 0 -65 0 3 -42 3 -43 63 -3 62 -3 0 -99 0 -100 50 0
50 0 0 100 0 100 60 0 60 0 0 -100 0 -100 50 0 50 0 0 100 0 100 65 0 65 0 0
45 0 44 -62 3 -63 3 -3 63 -3 62 66 0 65 0 0 45 0 45 -65 0 -65 0 0 106 0 105
-47 -3 -48 -3 -3 -102 -3 -103 -59 0 -60 0 0 105 0 105 -43 0 c-24 0 -47 -3
-50 -7z m213 -358 l0 -66 -57 3 -58 3 -3 63 -3 62 61 0 60 0 0 -65z"/>
<path d="M1870 374 l0 -357 148 6 c153 5 209 17 259 57 75 59 97 139 91 331
-5 154 -20 202 -81 256 -56 49 -119 63 -279 63 l-138 0 0 -356z m317 253 c74
-39 98 -115 91 -283 -6 -126 -21 -167 -75 -204 -31 -21 -50 -25 -139 -28
l-104 -4 0 272 0 273 98 -5 c62 -3 108 -11 129 -21z"/>
</g>
</svg>
