<?xml version="1.0" standalone="no"?>
<!DOCTYPE svg PUBLIC "-//W3C//DTD SVG 20010904//EN"
 "http://www.w3.org/TR/2001/REC-SVG-20010904/DTD/svg10.dtd">
<svg version="1.0" xmlns="http://www.w3.org/2000/svg"
 width="863.000000pt" height="221.000000pt" viewBox="0 0 863.000000 221.000000"
 preserveAspectRatio="xMidYMid meet">

<g transform="translate(0.000000,221.000000) scale(0.100000,-0.100000)"
fill="#000000" stroke="none">
<path d="M3845 2190 c-481 -39 -772 -143 -831 -297 -15 -38 -15 -51 -4 -100
28 -129 190 -222 486 -279 266 -51 763 -58 1242 -18 l72 6 0 46 0 47 -437 0
c-451 0 -533 5 -773 46 -275 47 -420 128 -396 222 29 118 311 218 724 258 142
14 533 17 735 6 l147 -8 0 24 c0 23 -2 23 -152 36 -187 16 -663 22 -813 11z"/>
<path d="M4295 1950 c-88 -4 -206 -11 -262 -15 l-103 -7 0 -50 0 -49 308 7
c677 14 1137 -54 1257 -187 47 -52 46 -86 -1 -139 -82 -91 -301 -160 -644
-202 -115 -14 -802 -18 -877 -5 -41 7 -43 6 -43 -17 0 -21 6 -24 53 -29 389
-44 997 -31 1279 28 302 64 468 174 468 310 0 164 -241 292 -641 340 -154 19
-552 26 -794 15z"/>
<path d="M1860 900 l0 -60 50 0 50 0 0 60 0 60 -50 0 -50 0 0 -60z"/>
<path d="M6290 750 l0 -100 -50 0 -50 0 0 -45 0 -45 49 0 50 0 3 -249 c3 -225
5 -251 21 -269 23 -25 82 -36 147 -27 l50 7 0 40 0 40 -39 -7 c-69 -12 -71 -5
-71 246 l0 219 55 0 55 0 0 45 0 45 -55 0 -55 0 0 100 0 100 -55 0 -55 0 0
-100z"/>
<path d="M8408 753 l-3 -98 -47 -3 -48 -3 0 -45 0 -44 50 0 50 0 0 -250 c0
-234 1 -251 19 -269 26 -26 78 -35 146 -26 l55 6 0 40 0 40 -44 -6 c-73 -11
-76 0 -76 252 l0 213 60 0 60 0 0 45 0 45 -60 0 -60 0 0 100 0 100 -50 0 -49
0 -3 -97z"/>
<path d="M3977 656 c-138 -50 -203 -164 -195 -344 5 -107 24 -159 82 -220 57
-62 119 -84 233 -83 141 1 236 72 274 204 9 31 7 33 -58 40 l-43 5 -11 -41
c-24 -93 -103 -146 -196 -133 -62 8 -106 40 -140 101 -26 46 -28 59 -28 155 0
90 3 112 24 153 33 68 85 100 159 100 88 0 149 -42 168 -117 6 -25 10 -27 37
-22 16 3 40 6 53 6 30 0 31 18 4 69 -26 53 -90 105 -151 124 -61 20 -160 21
-212 3z"/>
<path d="M4843 659 c-145 -19 -239 -129 -251 -291 -9 -133 34 -246 119 -308
54 -38 103 -52 195 -51 124 1 202 49 256 159 31 62 33 74 33 167 0 89 -4 107
-29 163 -16 34 -46 77 -66 96 -59 53 -160 79 -257 65z m147 -97 c25 -13 44
-35 65 -78 26 -51 30 -69 30 -139 -1 -89 -16 -144 -52 -193 -37 -50 -75 -65
-154 -60 -80 4 -112 23 -149 89 -22 39 -25 55 -25 149 0 88 3 111 22 145 25
46 58 80 93 94 42 16 132 13 170 -7z"/>
<path d="M5704 661 c-44 -11 -99 -47 -123 -79 l-20 -27 -1 48 0 47 -50 0 -50
0 0 -315 0 -315 49 0 50 0 3 224 c3 246 4 250 71 300 35 26 124 33 163 13 69
-35 68 -35 74 -296 l5 -236 50 0 50 0 0 245 c0 230 -2 247 -22 285 -11 22 -29
47 -39 56 -52 45 -144 67 -210 50z"/>
<path d="M6939 660 c-100 -17 -169 -78 -184 -162 l-7 -38 54 0 54 0 10 42 c11
52 47 79 111 85 59 6 114 -15 138 -51 9 -14 19 -52 22 -84 l6 -59 -94 -7
c-181 -13 -275 -52 -310 -129 -55 -122 16 -230 165 -252 64 -10 134 10 193 55
l52 39 10 -29 c16 -46 78 -70 139 -54 18 5 22 13 22 50 0 42 -1 44 -30 44 -19
0 -33 7 -40 19 -6 12 -10 93 -10 196 0 191 -7 225 -57 277 -44 46 -156 72
-244 58z m201 -372 c0 -66 -17 -111 -52 -145 -68 -64 -179 -71 -230 -14 -32
35 -35 59 -13 101 20 39 57 57 163 79 132 29 132 29 132 -21z"/>
<path d="M7730 657 c-130 -47 -200 -162 -200 -328 0 -161 82 -281 215 -313 61
-15 173 -8 225 15 64 27 121 92 143 160 10 29 16 53 15 54 -2 1 -27 5 -56 7
l-52 5 -12 -44 c-22 -90 -107 -143 -204 -128 -39 5 -57 16 -90 49 -56 55 -79
130 -71 236 10 147 73 223 185 223 88 0 155 -46 169 -115 5 -27 6 -28 62 -22
31 4 57 7 58 8 1 1 -8 24 -21 52 -29 62 -90 116 -157 137 -60 20 -159 21 -209
4z"/>
<path d="M170 648 c-107 -30 -163 -137 -121 -232 18 -41 28 -50 83 -76 35 -16
103 -36 153 -46 132 -24 165 -46 165 -111 0 -64 -59 -103 -155 -103 -97 0
-149 35 -169 113 l-11 42 -54 -8 c-53 -9 -53 -9 -47 -40 19 -94 96 -160 210
-179 178 -29 326 55 326 186 0 102 -45 139 -232 189 -69 18 -137 41 -151 50
-78 51 -12 152 97 151 88 -1 166 -57 166 -118 0 -17 5 -18 52 -12 29 4 54 8
55 10 1 1 -2 19 -8 40 -14 52 -83 119 -144 139 -53 19 -160 21 -215 5z"/>
<path d="M2380 648 c-107 -30 -163 -137 -121 -232 18 -41 28 -50 83 -76 35
-16 104 -36 154 -45 139 -25 180 -60 158 -137 -14 -48 -54 -71 -128 -76 -110
-7 -169 27 -190 110 l-11 43 -54 -8 c-53 -9 -53 -9 -47 -40 12 -63 58 -120
120 -152 52 -26 68 -29 150 -29 104 0 153 13 202 57 46 40 67 82 66 134 -2 98
-52 138 -233 186 -143 38 -174 54 -182 94 -17 85 113 137 217 88 40 -19 76
-66 76 -99 0 -17 5 -18 52 -12 29 4 54 8 55 10 10 9 -25 85 -53 116 -63 69
-203 100 -314 68z"/>
<path d="M3158 646 c-91 -33 -128 -81 -128 -168 0 -46 5 -62 26 -88 40 -47
115 -79 224 -95 114 -16 160 -46 160 -105 0 -70 -55 -110 -152 -110 -100 1
-153 41 -172 131 -5 25 -8 26 -48 18 -24 -4 -49 -8 -56 -9 -30 -1 20 -112 72
-158 47 -41 102 -56 206 -57 74 0 93 4 143 29 148 72 154 239 12 308 -16 9
-64 23 -105 33 -168 40 -210 64 -210 121 0 36 45 83 83 86 53 3 112 -4 137
-17 38 -20 70 -62 70 -93 0 -23 3 -24 38 -18 20 3 45 6 55 6 24 0 21 24 -8 79
-27 49 -71 85 -132 107 -49 17 -167 17 -215 0z"/>
<path d="M712 637 c2 -7 50 -149 108 -315 l105 -302 47 0 47 0 77 235 c42 130
78 234 80 233 1 -2 37 -108 79 -235 l76 -233 44 0 c38 0 44 3 53 28 5 15 51
140 102 277 51 138 98 267 106 288 l13 37 -53 0 -53 0 -84 -237 c-45 -130 -85
-230 -88 -222 -3 8 -37 113 -76 234 l-71 220 -44 3 -45 3 -79 -238 -79 -237
-81 237 -80 237 -54 0 c-39 0 -53 -4 -50 -13z"/>
<path d="M1860 335 l0 -315 50 0 50 0 0 315 0 315 -50 0 -50 0 0 -315z"/>
</g>
</svg>
